<svg width="166" height="45" viewBox="0 0 166 45" fill="none" xmlns="http://www.w3.org/2000/svg">
<g clip-path="url(#clip0_13_20)">
<path d="M31.952 17.0983H18.0115C17.6519 17.0983 17.36 17.3585 17.36 17.6787V23.7479C17.36 24.0681 17.6519 24.3286 18.0115 24.3286H23.4497V31.869C23.4497 31.869 22.2286 32.2397 18.8526 32.2397C14.8697 32.2397 9.30576 30.9438 9.30576 20.0494C9.30576 9.1525 15.0994 7.7188 20.5387 7.7188C25.247 7.7188 27.2755 8.45702 28.566 8.8126C28.9716 8.92334 29.3467 8.56376 29.3467 8.24325L30.9019 2.37925C30.9019 2.22945 30.8449 2.04889 30.6528 1.92616C30.1288 1.59334 26.9311 0 18.8526 0C9.54618 0 0 3.52566 0 20.4742C0 37.4233 10.9297 39.9489 20.1397 39.9489C27.7656 39.9489 32.3917 37.0471 32.3917 37.0471C32.5824 36.9533 32.6031 36.7161 32.6031 36.6072V17.6787C32.6031 17.3585 32.3116 17.0983 31.952 17.0983ZM103.758 2.12148C103.758 1.79851 103.47 1.53798 103.111 1.53798H95.2611C94.9026 1.53798 94.611 1.79851 94.611 2.12148C94.611 2.12302 94.6131 15.6289 94.6131 15.6289H82.378V2.12148C82.378 1.79851 82.0892 1.53798 81.7303 1.53798H73.8813C73.5241 1.53798 73.2329 1.79851 73.2329 2.12148V38.6955C73.2329 39.0182 73.5241 39.2808 73.8813 39.2808H81.7303C82.0892 39.2808 82.378 39.0182 82.378 38.6955V23.0515H94.6131C94.6131 23.0515 94.5917 38.6943 94.5917 38.6955C94.5917 39.0182 94.8829 39.2808 95.2418 39.2808H103.11C103.469 39.2808 103.757 39.0182 103.758 38.6955V2.12148ZM46.7388 7.01133C46.7388 4.49458 44.4727 2.46076 41.6771 2.46076C38.8843 2.46076 36.6164 4.49458 36.6164 7.01133C36.6164 9.5253 38.8843 11.5647 41.6771 11.5647C44.4727 11.5647 46.7388 9.5253 46.7388 7.01133ZM46.116 30.9995V14.1168C46.116 13.7963 45.8255 13.5342 45.4666 13.5342H37.6421C37.2831 13.5342 36.9619 13.8639 36.9619 14.1844V38.3722C36.9619 39.0831 37.4593 39.2944 38.1032 39.2944H45.1529C45.9264 39.2944 46.116 38.9563 46.116 38.3608V30.9995ZM133.757 13.5342H125.968C125.611 13.5342 125.32 13.7963 125.32 14.1189V32.0524C125.32 32.0524 123.341 33.3415 120.533 33.3415C117.724 33.3415 116.979 32.2068 116.979 29.758V14.1189C116.979 13.7963 116.689 13.5342 116.331 13.5342H108.426C108.069 13.5342 107.777 13.7963 107.777 14.1189V30.9422C107.777 38.2156 112.329 39.9951 118.592 39.9951C123.73 39.9951 127.872 37.4676 127.872 37.4676C127.872 37.4676 128.069 38.7995 128.159 38.9576C128.248 39.115 128.481 39.2741 128.732 39.2741L133.761 39.2544C134.118 39.2544 134.41 38.9917 134.41 38.6706L134.408 14.1189C134.408 13.7963 134.116 13.5342 133.757 13.5342ZM151.704 33.3553C149.002 33.2821 147.17 32.1905 147.17 32.1905V20.6083C147.17 20.6083 148.978 19.6215 151.196 19.4449C154.001 19.2213 156.704 19.9759 156.704 25.934C156.704 32.2169 155.484 33.4568 151.704 33.3553ZM154.776 12.7486C150.352 12.7486 147.343 14.5062 147.343 14.5062V2.12148C147.343 1.79851 147.053 1.53798 146.696 1.53798H138.824C138.466 1.53798 138.175 1.79851 138.175 2.12148V38.6955C138.175 39.0182 138.466 39.2808 138.825 39.2808H144.286C144.532 39.2808 144.719 39.168 144.856 38.9702C144.992 38.7736 145.188 37.2839 145.188 37.2839C145.188 37.2839 148.406 40 154.5 40C161.653 40 165.755 36.769 165.755 25.4953C165.755 14.2217 159.203 12.7486 154.776 12.7486ZM68.7073 13.4714H62.8193C62.8193 13.4714 62.8103 6.54655 62.8103 6.54501C62.8103 6.28294 62.6587 6.15191 62.3184 6.15191H54.2946C53.9827 6.15191 53.8151 6.27402 53.8151 6.54101V13.6988C53.8151 13.6988 49.7942 14.5631 49.5224 14.6329C49.2515 14.7027 49.0522 14.9251 49.0522 15.1903V19.6883C49.0522 20.0118 49.3424 20.2727 49.7013 20.2727H53.8151V31.0933C53.8151 39.1304 60.1463 39.92 64.4187 39.92C66.3708 39.92 68.7059 39.3617 69.0914 39.235C69.3246 39.1587 69.46 38.9437 69.46 38.7106L69.4666 33.7626C69.4666 33.4399 69.1605 33.1788 68.8158 33.1788C68.4728 33.1788 67.595 33.303 66.6913 33.303C63.7993 33.303 62.8193 32.1056 62.8193 30.5556C62.8193 29.0069 62.819 20.2727 62.819 20.2727H68.7073C69.0662 20.2727 69.3567 20.0118 69.3567 19.6883V14.0543C69.3567 13.7317 69.0662 13.4714 68.7073 13.4714Z" fill="#11110F"/>
</g>
<defs>
<clipPath id="clip0_13_20">
<rect width="165.755" height="45" fill="white"/>
</clipPath>
</defs>
</svg>
