<svg width="30" height="30" viewBox="0 0 30 30" fill="none" xmlns="http://www.w3.org/2000/svg">
<path d="M18.21 6.27C19.5467 7.6083 20.3833 9.36501 20.5799 11.2463C20.7765 13.1275 20.3211 15.0193 19.29 16.605C19.47 16.755 19.62 16.92 19.83 17.07C20.13 17.31 20.535 17.61 21.045 17.955C21.555 18.315 21.885 18.54 22.035 18.66C22.665 19.125 23.13 19.515 23.445 19.83C23.925 20.31 24.345 20.805 24.705 21.33C25.08 21.855 25.365 22.365 25.59 22.89C25.8 23.415 25.905 23.91 25.86 24.39C25.83 24.87 25.65 25.275 25.32 25.605C24.99 25.935 24.585 26.115 24.105 26.145C23.64 26.175 23.13 26.085 22.62 25.86C22.095 25.65 21.57 25.35 21.06 24.975C20.535 24.615 20.04 24.195 19.56 23.715C19.245 23.4 18.855 22.935 18.405 22.32C18.255 22.125 18.03 21.795 17.7 21.33C17.37 20.85 17.1 20.475 16.86 20.16C16.62 19.86 16.425 19.635 16.2 19.41C14.6431 20.2252 12.8666 20.5223 11.1291 20.2579C9.39168 19.9935 7.78396 19.1815 6.54001 17.94C3.33001 14.715 3.33001 9.48 6.54001 6.27C7.30594 5.50314 8.21552 4.89479 9.21674 4.47972C10.218 4.06466 11.2912 3.85101 12.375 3.85101C13.4589 3.85101 14.5321 4.06466 15.5333 4.47972C16.5345 4.89479 17.4441 5.50314 18.21 6.27ZM16.095 15.81C17.0749 14.8229 17.6249 13.4884 17.6249 12.0975C17.6249 10.7066 17.0749 9.37209 16.095 8.385C15.608 7.89654 15.0294 7.50899 14.3923 7.24455C13.7553 6.98012 13.0723 6.844 12.3825 6.844C11.6927 6.844 11.0098 6.98012 10.3727 7.24455C9.73564 7.50899 9.15702 7.89654 8.67001 8.385C8.18155 8.87201 7.794 9.45062 7.52956 10.0877C7.26513 10.7247 7.12901 11.4077 7.12901 12.0975C7.12901 12.7873 7.26513 13.4702 7.52956 14.1073C7.794 14.7444 8.18155 15.323 8.67001 15.81C9.15702 16.2985 9.73564 16.686 10.3727 16.9504C11.0098 17.2149 11.6927 17.351 12.3825 17.351C13.0723 17.351 13.7553 17.2149 14.3923 16.9504C15.0294 16.686 15.608 16.2985 16.095 15.81Z" fill="black"/>
</svg>
