<svg width="61" height="34" viewBox="0 0 61 34" fill="none" xmlns="http://www.w3.org/2000/svg">
<path d="M31.056 1.32L19.872 21.432V33H11.616V21.432L0.432 1.32H8.976L13.44 10.008L15.792 15.288L18.192 10.008L22.656 1.32H31.056ZM60.8809 23.928C59.9529 27.256 58.2409 29.688 55.7449 31.224C53.2809 32.728 50.3689 33.48 47.0089 33.48C43.7769 33.48 40.9929 32.84 38.6569 31.56C36.3529 30.248 34.5769 28.376 33.3289 25.944C32.0809 23.512 31.4569 20.584 31.4569 17.16C31.4569 13.736 32.0809 10.808 33.3289 8.376C34.5769 5.944 36.3529 4.088 38.6569 2.808C40.9929 1.496 43.7609 0.839999 46.9609 0.839999C50.2569 0.839999 53.1369 1.544 55.6009 2.952C58.0649 4.36 59.6969 6.568 60.4969 9.576L53.2489 12.504C52.8009 10.552 52.0649 9.208 51.0409 8.472C50.0489 7.704 48.7849 7.32 47.2489 7.32C44.9449 7.32 43.1369 8.152 41.8249 9.816C40.5449 11.48 39.9049 13.928 39.9049 17.16C39.9049 20.392 40.5129 22.84 41.7289 24.504C42.9769 26.168 44.8329 27 47.2969 27C48.8329 27 50.1289 26.584 51.1849 25.752C52.2729 24.888 53.0089 23.576 53.3929 21.816L60.8809 23.928Z" fill="white"/>
<path d="M31.056 1.32L32.8039 2.29199C33.1484 1.67254 33.1393 0.917046 32.7799 0.306092C32.4206 -0.304861 31.7648 -0.680001 31.056 -0.680001V1.32ZM19.872 21.432L18.1241 20.46C17.9588 20.7573 17.872 21.0918 17.872 21.432H19.872ZM19.872 33V35C20.9766 35 21.872 34.1046 21.872 33H19.872ZM11.616 33H9.616C9.616 34.1046 10.5114 35 11.616 35V33ZM11.616 21.432H13.616C13.616 21.0918 13.5292 20.7573 13.3639 20.46L11.616 21.432ZM0.432 1.32V-0.680001C-0.276784 -0.680001 -0.932627 -0.304861 -1.29195 0.306093C-1.65127 0.917046 -1.66039 1.67254 -1.31592 2.29199L0.432 1.32ZM8.976 1.32L10.7549 0.405969C10.4123 -0.260799 9.72563 -0.680001 8.976 -0.680001V1.32ZM13.44 10.008L15.2669 9.19418C15.2519 9.16034 15.2358 9.12692 15.2189 9.09397L13.44 10.008ZM15.792 15.288L13.9651 16.1018C14.2853 16.8207 14.9974 17.285 15.7844 17.288C16.5715 17.291 17.2871 16.8321 17.6127 16.1156L15.792 15.288ZM18.192 10.008L16.4131 9.09397C16.3985 9.12244 16.3845 9.15125 16.3713 9.18039L18.192 10.008ZM22.656 1.32V-0.680001C21.9064 -0.680001 21.2197 -0.260799 20.8771 0.405969L22.656 1.32ZM29.3081 0.348005L18.1241 20.46L21.6199 22.404L32.8039 2.29199L29.3081 0.348005ZM17.872 21.432V33H21.872V21.432H17.872ZM19.872 31H11.616V35H19.872V31ZM13.616 33V21.432H9.616V33H13.616ZM13.3639 20.46L2.17992 0.348005L-1.31592 2.29199L9.86808 22.404L13.3639 20.46ZM0.432 3.32H8.976V-0.680001H0.432V3.32ZM7.19708 2.23403L11.6611 10.922L15.2189 9.09397L10.7549 0.405969L7.19708 2.23403ZM11.6131 10.8218L13.9651 16.1018L17.6189 14.4742L15.2669 9.19418L11.6131 10.8218ZM17.6127 16.1156L20.0127 10.8356L16.3713 9.18039L13.9713 14.4604L17.6127 16.1156ZM19.9709 10.922L24.4349 2.23403L20.8771 0.405969L16.4131 9.09397L19.9709 10.922ZM22.656 3.32H31.056V-0.680001H22.656V3.32ZM60.8809 23.928L62.8074 24.4652C63.1034 23.4035 62.4847 22.3023 61.4238 22.0031L60.8809 23.928ZM55.7449 31.224L56.7869 32.9311L56.7931 32.9273L55.7449 31.224ZM38.6569 31.56L37.6672 33.298C37.6767 33.3034 37.6862 33.3087 37.6958 33.314L38.6569 31.56ZM33.3289 25.944L35.1083 25.0309L35.1083 25.0309L33.3289 25.944ZM33.3289 8.376L35.1083 9.28911L35.1083 9.28911L33.3289 8.376ZM38.6569 2.808L39.6282 4.55633L39.6363 4.55179L38.6569 2.808ZM55.6009 2.952L56.5932 1.21551L56.5932 1.21551L55.6009 2.952ZM60.4969 9.576L61.246 11.4304C62.1815 11.0525 62.689 10.037 62.4297 9.06195L60.4969 9.576ZM53.2489 12.504L51.2996 12.9514C51.4305 13.5221 51.805 14.0067 52.3242 14.2774C52.8434 14.5481 53.4551 14.5777 53.998 14.3584L53.2489 12.504ZM51.0409 8.472L49.8165 10.0534C49.8353 10.068 49.8543 10.0822 49.8736 10.096L51.0409 8.472ZM41.8249 9.816L40.2543 8.57769C40.2494 8.58396 40.2445 8.59025 40.2396 8.59658L41.8249 9.816ZM41.7289 24.504L40.1141 25.684C40.119 25.6907 40.1239 25.6974 40.1289 25.704L41.7289 24.504ZM51.1849 25.752L52.4226 27.323L52.4286 27.3182L51.1849 25.752ZM53.3929 21.816L53.9358 19.8911C53.4052 19.7414 52.8364 19.8174 52.3637 20.1011C51.891 20.3848 51.5564 20.851 51.4388 21.3897L53.3929 21.816ZM58.9544 23.3908C58.136 26.3257 56.6882 28.2951 54.6967 29.5207L56.7931 32.9273C59.7936 31.0809 61.7698 28.1863 62.8074 24.4652L58.9544 23.3908ZM54.7029 29.5169C52.6011 30.7998 50.0624 31.48 47.0089 31.48V35.48C50.6753 35.48 53.9606 34.6562 56.7869 32.9311L54.7029 29.5169ZM47.0089 31.48C44.0416 31.48 41.6027 30.8936 39.6179 29.806L37.6958 33.314C40.3831 34.7864 43.5121 35.48 47.0089 35.48V31.48ZM39.6466 29.822C37.6913 28.7086 36.1846 27.1284 35.1083 25.0309L31.5495 26.8571C32.9691 29.6236 35.0145 31.7874 37.6672 33.298L39.6466 29.822ZM35.1083 25.0309C34.0373 22.9438 33.4569 20.3449 33.4569 17.16H29.4569C29.4569 20.8231 30.1245 24.0802 31.5495 26.8571L35.1083 25.0309ZM33.4569 17.16C33.4569 13.9751 34.0373 11.3762 35.1083 9.28911L31.5495 7.46289C30.1245 10.2398 29.4569 13.4969 29.4569 17.16H33.4569ZM35.1083 9.28911C36.1826 7.19552 37.6836 5.63662 39.6282 4.55631L37.6856 1.05968C35.0221 2.53938 32.9711 4.69248 31.5495 7.46289L35.1083 9.28911ZM39.6363 4.55179C41.62 3.43765 44.0372 2.84 46.9609 2.84V-1.16C43.4845 -1.16 40.3658 -0.445656 37.6775 1.06421L39.6363 4.55179ZM46.9609 2.84C49.9656 2.84 52.4925 3.4793 54.6086 4.68848L56.5932 1.21551C53.7812 -0.391301 50.5482 -1.16 46.9609 -1.16V2.84ZM54.6086 4.68848C56.561 5.80413 57.8869 7.54378 58.5641 10.09L62.4297 9.06195C61.5069 5.59222 59.5688 2.91587 56.5932 1.21551L54.6086 4.68848ZM59.7477 7.7216L52.4997 10.6496L53.998 14.3584L61.246 11.4304L59.7477 7.7216ZM55.1982 12.0566C54.702 9.89473 53.8027 7.99406 52.2081 6.84797L49.8736 10.096C50.327 10.4219 50.8997 11.2093 51.2996 12.9514L55.1982 12.0566ZM52.2652 6.89055C50.8498 5.79477 49.1261 5.32 47.2489 5.32V9.32C48.4437 9.32 49.2479 9.61323 49.8165 10.0534L52.2652 6.89055ZM47.2489 5.32C44.3937 5.32 41.982 6.38648 40.2543 8.57769L43.3954 11.0543C44.2917 9.91752 45.496 9.32 47.2489 9.32V5.32ZM40.2396 8.59658C38.58 10.754 37.9049 13.7114 37.9049 17.16H41.9049C41.9049 14.1446 42.5097 12.206 43.4101 11.0354L40.2396 8.59658ZM37.9049 17.16C37.9049 20.5918 38.5417 23.5324 40.1141 25.684L43.3437 23.324C42.484 22.1476 41.9049 20.1922 41.9049 17.16H37.9049ZM40.1289 25.704C41.8269 27.968 44.3345 29 47.2969 29V25C45.3312 25 44.1268 24.368 43.3289 23.304L40.1289 25.704ZM47.2969 29C49.2147 29 50.9645 28.4718 52.4226 27.323L49.9471 24.181C49.2933 24.6962 48.4511 25 47.2969 25V29ZM52.4286 27.3182C53.9731 26.0918 54.8942 24.3174 55.3469 22.2423L51.4388 21.3897C51.1236 22.8346 50.5727 23.6842 49.9411 24.1858L52.4286 27.3182ZM52.85 23.7409L60.338 25.8529L61.4238 22.0031L53.9358 19.8911L52.85 23.7409Z" fill="black"/>
</svg>
