<svg width="100" height="100" viewBox="0 0 100 100" fill="none" xmlns="http://www.w3.org/2000/svg">
<circle cx="50" cy="50" r="50" fill="#1C1818"/>
<circle cx="50" cy="50" r="48" fill="white"/>
<path d="M31.226 69C30.8393 69 30.5107 68.884 30.24 68.652C30.008 68.3813 29.892 68.0527 29.892 67.666V53.978L15.914 30.314C15.8753 30.198 15.8367 30.082 15.798 29.966C15.7593 29.85 15.74 29.7147 15.74 29.56C15.74 29.2507 15.856 28.98 16.088 28.748C16.32 28.516 16.5907 28.4 16.9 28.4H19.916C20.264 28.4 20.5733 28.4967 20.844 28.69C21.1147 28.8447 21.308 29.0767 21.424 29.386L32.734 48.178L44.044 29.386C44.2373 29.0767 44.45 28.8447 44.682 28.69C44.9527 28.4967 45.262 28.4 45.61 28.4H48.568C48.916 28.4 49.206 28.516 49.438 28.748C49.67 28.98 49.786 29.2507 49.786 29.56C49.786 29.7147 49.7667 29.85 49.728 29.966C49.6893 30.082 49.6313 30.198 49.554 30.314L35.634 53.978V67.666C35.634 68.0527 35.4987 68.3813 35.228 68.652C34.996 68.884 34.6673 69 34.242 69H31.226ZM65.9789 69.58C62.4215 69.58 59.4635 68.9227 57.1049 67.608C54.7849 66.2933 53.0255 64.4567 51.8269 62.098C50.6282 59.7393 49.9709 56.994 49.8549 53.862C49.8162 52.2767 49.7969 50.5753 49.7969 48.758C49.7969 46.9407 49.8162 45.2007 49.8549 43.538C49.9709 40.406 50.6282 37.6607 51.8269 35.302C53.0255 32.9433 54.7849 31.1067 57.1049 29.792C59.4635 28.4773 62.4215 27.82 65.9789 27.82C68.6469 27.82 70.9862 28.1873 72.9969 28.922C75.0075 29.6567 76.6702 30.6427 77.9849 31.88C79.3382 33.1173 80.3629 34.5093 81.0589 36.056C81.7549 37.564 82.1415 39.13 82.2189 40.754C82.2575 41.102 82.1415 41.392 81.8709 41.624C81.6389 41.856 81.3489 41.972 81.0009 41.972H77.8109C77.4629 41.972 77.1535 41.8753 76.8829 41.682C76.6509 41.4887 76.4769 41.1407 76.3609 40.638C75.7035 37.622 74.4662 35.5533 72.6489 34.432C70.8702 33.3107 68.6275 32.75 65.9209 32.75C62.8275 32.75 60.3722 33.6393 58.5549 35.418C56.7375 37.158 55.7515 39.9613 55.5969 43.828C55.4809 46.9987 55.4809 50.2467 55.5969 53.572C55.7515 57.4387 56.7375 60.2613 58.5549 62.04C60.3722 63.78 62.8275 64.65 65.9209 64.65C68.6275 64.65 70.8702 64.0893 72.6489 62.968C74.4662 61.8467 75.7035 59.778 76.3609 56.762C76.4769 56.2593 76.6509 55.9113 76.8829 55.718C77.1535 55.5247 77.4629 55.428 77.8109 55.428H81.0009C81.3489 55.428 81.6389 55.544 81.8709 55.776C82.1415 56.008 82.2575 56.298 82.2189 56.646C82.1415 58.27 81.7549 59.8553 81.0589 61.402C80.3629 62.91 79.3382 64.2827 77.9849 65.52C76.6702 66.7573 75.0075 67.7433 72.9969 68.478C70.9862 69.2127 68.6469 69.58 65.9789 69.58Z" fill="black"/>
</svg>
